solid OpenSCAD_Model
  facet normal -0 0 1
    outer loop
      vertex -60 83 -2
      vertex 60 -7 -2
      vertex 60 83 -2
    endloop
  endfacet
  facet normal 0 0 1
    outer loop
      vertex 60 -7 -2
      vertex -60 83 -2
      vertex -60 -7 -2
    endloop
  endfacet
  facet normal 0 0 -1
    outer loop
      vertex -60 -7 -7
      vertex 60 83 -7
      vertex 60 -7 -7
    endloop
  endfacet
  facet normal -0 0 -1
    outer loop
      vertex 60 83 -7
      vertex -60 -7 -7
      vertex -60 83 -7
    endloop
  endfacet
  facet normal 0 -1 0
    outer loop
      vertex -60 -7 -7
      vertex 60 -7 -2
      vertex -60 -7 -2
    endloop
  endfacet
  facet normal 0 -1 -0
    outer loop
      vertex 60 -7 -2
      vertex -60 -7 -7
      vertex 60 -7 -7
    endloop
  endfacet
  facet normal 1 -0 0
    outer loop
      vertex 60 -7 -2
      vertex 60 83 -7
      vertex 60 83 -2
    endloop
  endfacet
  facet normal 1 0 0
    outer loop
      vertex 60 83 -7
      vertex 60 -7 -2
      vertex 60 -7 -7
    endloop
  endfacet
  facet normal 0 1 -0
    outer loop
      vertex 60 83 -7
      vertex -60 83 -2
      vertex 60 83 -2
    endloop
  endfacet
  facet normal 0 1 0
    outer loop
      vertex -60 83 -2
      vertex 60 83 -7
      vertex -60 83 -7
    endloop
  endfacet
  facet normal -1 0 0
    outer loop
      vertex -60 -7 -7
      vertex -60 83 -2
      vertex -60 83 -7
    endloop
  endfacet
  facet normal -1 -0 0
    outer loop
      vertex -60 83 -2
      vertex -60 -7 -7
      vertex -60 -7 -2
    endloop
  endfacet
endsolid OpenSCAD_Model
